<?xml version="1.0" encoding="UTF-8"?>
<svg width="16px" height="16px" viewBox="0 0 20 22" version="1.1" xmlns="http://www.w3.org/2000/svg" xmlns:xlink="http://www.w3.org/1999/xlink">
    <!-- Generator: Sketch 55.1 (78136) - https://sketchapp.com -->
    <title>Fill 1</title>
    <desc>Created with Sketch.</desc>
    <defs>
        <path d="M16.305315,20.9627906 C12.723261,21.6767212 9.23577856,19.3125369 8.52961648,15.691919 C7.82428763,12.0708799 10.1627465,8.54503151 13.7448005,7.83067972 C17.3256047,7.11674912 20.8130871,9.48177583 21.5196658,13.1032361 C22.2258279,16.7238541 19.8857026,20.2497024 16.305315,20.9627906 M23.1519626,20.5950848 C22.364144,19.6351746 22.7653441,19.0589757 22.9807339,18.748974 C23.0111468,18.7072754 23.0386434,18.6685252 23.0590575,18.6289326 C24.7692612,15.2745118 24.2805721,11.2588102 21.8100463,8.40182419 C19.6757287,5.93107678 16.3803057,4.78963023 13.2123668,5.42142722 C11.6788077,5.72637456 10.2431531,6.44030515 9.06163357,7.48529736 C7.25269213,9.08374373 6.17074351,11.3059843 6.0186791,13.7409299 C5.86536486,16.1758755 6.65984928,18.534163 8.25381749,20.3794314 C10.3856354,22.844282 13.6756424,23.984465 16.8398318,23.3535104 C17.2410319,23.2734828 17.6405655,23.1643925 18.0246843,23.0308728 C18.0742615,23.0136036 18.1263383,22.982435 18.1825813,22.9504239 C18.3208974,22.8746083 18.4917095,22.7798388 18.7008501,22.7381402 C19.1607928,22.6467402 19.587823,22.8409125 20.0077707,23.3337141 C20.7618435,24.2194935 22.3537286,26.0222209 22.3537286,26.0222209 C22.8482504,26.5929442 23.6081558,26.8561929 24.3388981,26.7104584 C24.6921875,26.6401183 25.022563,26.4771147 25.2950291,26.2361895 C25.7116439,25.8680624 25.9599463,25.3558857 25.9957752,24.7944287 C26.0307708,24.2321294 25.8474603,23.6892052 25.4791728,23.2637952 C25.3591878,23.1252211 23.8777056,21.4833913 23.1519626,20.5950848" id="path-1"></path>
    </defs>
    <g id="Icons" stroke="none" stroke-width="1" fill="#afb3b7" fill-rule="evenodd">
        <g id="Icon/Search" transform="translate(-6.000000, -5.000000)">
            <mask id="mask-2" fill="white">
                <use xlink:href="#path-1"></use>
            </mask>
            <use id="Fill-1" fill="#afb3b7" xlink:href="#path-1"></use>
        </g>
    </g>
</svg>